<?xml version="1.0" standalone="no"?>
<!DOCTYPE svg PUBLIC "-//W3C//DTD SVG 20010904//EN"
 "http://www.w3.org/TR/2001/REC-SVG-20010904/DTD/svg10.dtd">
<svg version="1.0" xmlns="http://www.w3.org/2000/svg"
 width="1000.000000pt" height="1000.000000pt" viewBox="0 0 1000.000000 1000.000000"
 preserveAspectRatio="xMidYMid meet">
<metadata>
Created by potrace 1.14, written by Peter Selinger 2001-2017
</metadata>
<g transform="translate(0.000000,1000.000000) scale(0.100000,-0.100000)"
fill="#000000" stroke="none">
<path d="M4808 9335 c-2 -1 -39 -5 -83 -9 -131 -10 -261 -24 -345 -37 -36 -6
-81 -13 -100 -15 -19 -2 -46 -6 -60 -9 -14 -3 -36 -7 -50 -10 -20 -4 -118 -25
-140 -30 -50 -12 -68 -16 -85 -20 -92 -19 -381 -111 -490 -156 -16 -7 -36 -13
-43 -15 -7 -1 -33 -12 -58 -23 -24 -12 -46 -21 -49 -21 -14 0 -191 -84 -197
-94 -4 -6 -8 -8 -8 -4 0 7 -50 -18 -210 -105 -190 -103 -454 -280 -620 -416
-275 -226 -576 -539 -745 -775 -11 -15 -28 -37 -39 -49 -31 -36 -191 -281
-188 -289 1 -5 -3 -8 -8 -8 -6 0 -10 -7 -10 -15 0 -8 -4 -15 -10 -15 -5 0 -10
-4 -10 -10 0 -5 -14 -33 -31 -62 -92 -155 -274 -540 -261 -552 3 -3 1 -6 -5
-6 -5 0 -10 -6 -11 -12 0 -7 -17 -56 -37 -108 -20 -52 -37 -99 -39 -105 -9
-35 -38 -132 -43 -145 -11 -26 -60 -216 -69 -264 -2 -16 -6 -32 -8 -35 -2 -3
-7 -24 -10 -46 -4 -22 -8 -47 -11 -55 -2 -8 -6 -31 -9 -50 -3 -19 -7 -44 -10
-55 -2 -11 -7 -42 -10 -70 -18 -136 -24 -181 -24 -195 -1 -8 -5 -49 -9 -90 -4
-41 -8 -205 -8 -365 0 -254 5 -363 20 -480 4 -35 13 -101 21 -170 3 -27 8 -59
11 -70 4 -20 10 -48 17 -87 3 -13 9 -44 14 -70 5 -27 7 -48 4 -48 -2 0 1 -7 8
-15 7 -8 10 -15 7 -15 -4 0 34 -156 57 -235 1 -5 8 -30 15 -55 7 -25 16 -49
19 -55 4 -5 8 -19 9 -30 2 -11 6 -27 10 -35 3 -8 7 -19 9 -25 1 -5 14 -41 29
-80 15 -38 28 -74 29 -80 4 -14 26 -65 43 -97 7 -15 14 -31 15 -35 2 -18 15
-46 101 -223 50 -102 105 -208 124 -237 18 -29 33 -54 33 -57 0 -3 28 -49 63
-103 186 -292 398 -555 632 -783 139 -136 188 -180 320 -285 55 -44 102 -83
103 -87 2 -5 8 -8 14 -8 5 0 15 -6 22 -12 8 -7 24 -20 36 -28 12 -8 34 -25 48
-37 15 -13 33 -23 40 -23 6 0 12 -4 12 -8 0 -5 12 -15 28 -23 15 -8 36 -22 46
-32 11 -9 23 -17 27 -17 4 0 49 -26 100 -58 52 -32 123 -74 159 -93 36 -19 68
-38 72 -44 4 -5 8 -7 8 -2 0 4 18 -4 40 -18 22 -14 41 -25 44 -25 2 0 42 -17
88 -39 45 -21 108 -49 138 -61 30 -12 73 -30 95 -40 102 -45 377 -135 535
-175 37 -9 97 -23 140 -31 14 -3 33 -7 43 -10 10 -3 31 -7 48 -9 17 -3 38 -7
48 -9 15 -5 62 -13 126 -21 17 -2 46 -7 65 -10 19 -4 51 -8 70 -10 213 -19
211 -18 228 -28 7 -5 12 -3 12 4 0 8 4 8 13 1 13 -11 540 -9 607 2 19 3 64 8
100 11 36 3 99 10 140 16 41 6 91 13 110 15 19 3 58 9 85 14 28 5 64 12 80 15
17 3 41 7 55 11 14 3 34 7 45 9 11 2 58 14 105 25 47 12 90 23 95 24 100 25
426 136 502 171 17 8 34 15 37 15 15 0 259 118 406 197 118 63 350 207 405
251 6 4 32 23 60 42 27 19 58 43 70 52 11 9 59 47 106 85 160 126 369 324 509
482 36 41 70 79 75 85 97 107 275 354 421 586 78 125 282 538 298 605 4 13 24
64 36 90 19 42 107 311 115 350 2 11 8 32 14 48 6 15 9 27 7 27 -2 0 3 21 11
48 8 26 16 58 19 72 2 14 11 54 18 90 8 36 17 83 21 105 3 22 7 47 10 55 2 8
6 35 9 60 4 25 8 56 10 70 5 33 14 98 23 185 14 128 8 880 -7 880 -1 0 -3 20
-5 45 -2 25 -6 59 -9 75 -3 17 -8 50 -11 75 -3 25 -7 56 -10 70 -3 14 -8 40
-11 59 -3 18 -8 43 -10 55 -2 11 -6 32 -9 46 -3 14 -21 88 -40 165 -20 77 -38
147 -39 155 -11 43 -50 157 -59 168 -5 6 -7 12 -3 12 5 0 -8 41 -34 105 -4 11
-18 47 -31 80 -12 33 -35 88 -51 123 -15 34 -28 65 -28 67 0 12 -120 251 -179
355 -97 173 -280 444 -391 580 -11 14 -29 36 -41 50 -218 268 -545 575 -803
755 -31 22 -76 54 -99 71 -221 161 -656 385 -952 490 -38 14 -79 29 -90 34
-11 5 -38 14 -60 20 -22 6 -47 14 -55 17 -8 3 -19 7 -25 9 -5 1 -44 12 -85 24
-41 11 -82 23 -90 25 -8 2 -35 8 -60 14 -98 25 -197 45 -315 66 -56 9 -250 35
-310 40 -33 4 -82 8 -110 11 -51 5 -493 12 -497 9z"/>
</g>
</svg>
